<svg width="101" height="57" viewBox="0 0 101 57" fill="none" xmlns="http://www.w3.org/2000/svg">
<path d="M2.415 53H1.08L2.055 46.805H0.645L0.825 45.665H2.235L2.595 43.37H3.945L3.585 45.665H4.995L4.815 46.805H3.405L2.415 53ZM4.88531 49.85C4.88531 47.42 6.77531 45.47 9.13031 45.47C11.1253 45.47 12.4753 46.82 12.4753 48.8C12.4753 51.23 10.6003 53.18 8.24531 53.18C6.25031 53.18 4.88531 51.83 4.88531 49.85ZM6.26531 49.76C6.26531 51.125 7.06031 51.98 8.35031 51.98C9.86531 51.98 11.1103 50.6 11.1103 48.89C11.1103 47.54 10.3153 46.67 9.02531 46.67C7.51031 46.67 6.26531 48.05 6.26531 49.76ZM16.5833 56.285L18.2633 45.665H19.4933L19.3883 46.955C20.0183 45.98 20.9033 45.47 22.0583 45.47C23.7833 45.47 24.9983 46.805 24.9983 48.725C24.9983 51.305 23.3333 53.18 21.1283 53.18C19.9433 53.18 18.9833 52.595 18.6383 51.65L17.9183 56.285H16.5833ZM18.9833 49.895C18.9833 51.2 19.7033 51.98 20.9483 51.98C22.4633 51.98 23.6483 50.6 23.6483 48.8C23.6483 47.51 22.8983 46.67 21.7133 46.67C20.1833 46.67 18.9833 48.08 18.9833 49.895ZM27.8913 53.18C26.5863 53.18 25.7163 52.4 25.7163 51.215C25.7163 49.73 26.8263 48.8 28.7613 48.635L31.0563 48.455L31.0863 48.26C31.2813 47.165 30.7263 46.565 29.5713 46.565C28.4613 46.565 27.8163 47.045 27.6663 47.99H26.4213C26.6763 46.385 27.8613 45.47 29.6913 45.47C31.6413 45.47 32.6913 46.595 32.4063 48.38L31.6713 53H30.5013L30.5613 51.8C30.0663 52.655 29.0313 53.18 27.8913 53.18ZM28.3713 52.115C29.6913 52.115 30.6513 51.23 30.8613 49.82L30.9213 49.43L29.0463 49.58C27.7263 49.685 27.0813 50.225 27.0813 51.095C27.0813 51.725 27.5613 52.115 28.3713 52.115ZM38.7125 45.605L38.5175 46.85H37.9025C36.6275 46.85 35.6525 47.66 35.4425 49.07L34.8125 53H33.4625L34.6325 45.665H35.8625L35.7725 46.82C36.2075 46.04 37.0025 45.515 37.9625 45.515C38.2175 45.515 38.4725 45.545 38.7125 45.605ZM40.9611 53H39.6261L40.6011 46.805H39.1911L39.3711 45.665H40.7811L41.1411 43.37H42.4911L42.1311 45.665H43.5411L43.3611 46.805H41.9511L40.9611 53ZM45.5747 43.895C45.1247 43.895 44.7947 43.565 44.7947 43.13C44.7947 42.575 45.2897 42.065 45.8447 42.065C46.2947 42.065 46.6097 42.395 46.6097 42.83C46.6097 43.385 46.1147 43.895 45.5747 43.895ZM43.4597 53L44.6297 45.665H45.9647L44.8097 53H43.4597ZM46.7088 49.91C46.7088 47.405 48.4488 45.47 50.7138 45.47C52.4988 45.47 53.6088 46.46 53.7288 48.14H52.3488C52.2588 47.225 51.6288 46.685 50.6538 46.685C49.1988 46.685 48.0888 48.05 48.0888 49.835C48.0888 51.14 48.8238 51.98 49.9788 51.98C50.9388 51.98 51.7188 51.425 52.0488 50.525H53.4438C52.9788 52.145 51.6138 53.18 49.9338 53.18C47.9838 53.18 46.7088 51.89 46.7088 49.91ZM56.4654 43.895C56.0154 43.895 55.6854 43.565 55.6854 43.13C55.6854 42.575 56.1804 42.065 56.7354 42.065C57.1854 42.065 57.5004 42.395 57.5004 42.83C57.5004 43.385 57.0054 43.895 56.4654 43.895ZM54.3504 53L55.5204 45.665H56.8554L55.7004 53H54.3504ZM57.0445 56.285L58.7245 45.665H59.9545L59.8495 46.955C60.4795 45.98 61.3645 45.47 62.5195 45.47C64.2445 45.47 65.4595 46.805 65.4595 48.725C65.4595 51.305 63.7945 53.18 61.5895 53.18C60.4045 53.18 59.4445 52.595 59.0995 51.65L58.3795 56.285H57.0445ZM59.4445 49.895C59.4445 51.2 60.1645 51.98 61.4095 51.98C62.9245 51.98 64.1095 50.6 64.1095 48.8C64.1095 47.51 63.3595 46.67 62.1745 46.67C60.6445 46.67 59.4445 48.08 59.4445 49.895ZM68.3525 53.18C67.0475 53.18 66.1775 52.4 66.1775 51.215C66.1775 49.73 67.2875 48.8 69.2225 48.635L71.5175 48.455L71.5475 48.26C71.7425 47.165 71.1875 46.565 70.0325 46.565C68.9225 46.565 68.2775 47.045 68.1275 47.99H66.8825C67.1375 46.385 68.3225 45.47 70.1525 45.47C72.1025 45.47 73.1525 46.595 72.8675 48.38L72.1325 53H70.9625L71.0225 51.8C70.5275 52.655 69.4925 53.18 68.3525 53.18ZM68.8325 52.115C70.1525 52.115 71.1125 51.23 71.3225 49.82L71.3825 49.43L69.5075 49.58C68.1875 49.685 67.5425 50.225 67.5425 51.095C67.5425 51.725 68.0225 52.115 68.8325 52.115ZM75.7866 53H74.4516L75.4266 46.805H74.0166L74.1966 45.665H75.6066L75.9666 43.37H77.3166L76.9566 45.665H78.3666L78.1866 46.805H76.7766L75.7866 53ZM81.4819 53.18C79.5319 53.18 78.2569 51.89 78.2569 49.91C78.2569 47.405 79.9969 45.47 82.2619 45.47C84.3469 45.47 85.5619 46.97 85.2319 49.07L85.1569 49.58L79.5769 49.595C79.5769 49.67 79.5769 49.745 79.5769 49.835C79.5769 51.2 80.3119 52.04 81.5269 52.04C82.4869 52.04 83.2969 51.56 83.6269 50.735H84.9769C84.4819 52.235 83.0869 53.18 81.4819 53.18ZM82.2019 46.61C81.0469 46.61 80.1019 47.45 79.7419 48.68H83.9419C84.1369 47.435 83.4169 46.61 82.2019 46.61ZM93.4197 50.39H92.1747L92.2347 50.03C92.3997 49.01 92.9847 48.2 94.2447 47.345C95.5347 46.445 95.9997 45.8 95.9997 44.885C95.9997 43.88 95.2947 43.25 94.2147 43.25C92.9547 43.25 92.1147 44.06 91.9497 45.44H90.5246C90.8397 43.28 92.3097 41.945 94.3347 41.945C96.1647 41.945 97.4547 43.13 97.4547 44.84C97.4547 46.115 96.7047 47.15 95.1897 48.14C93.9747 48.905 93.5847 49.37 93.4797 50.03L93.4197 50.39ZM92.3997 53.18C91.9047 53.18 91.5297 52.79 91.5297 52.31C91.5297 51.68 92.1147 51.095 92.7297 51.095C93.2397 51.095 93.6146 51.485 93.6146 51.98C93.6146 52.595 93.0297 53.18 92.3997 53.18Z" fill="#496AC7"/>
<path d="M35.9751 27.5151C35.3371 27.3556 33.9756 27.2759 31.8906 27.2759C30.193 30.8078 29.0024 33.958 28.3188 36.7266C27.9315 38.2305 26.4674 38.9824 23.9268 38.9824C21.8304 38.9824 20.4974 38.4925 19.9277 37.5127C19.7227 37.1823 19.6429 36.8633 19.6885 36.5557C19.734 36.2367 19.8822 35.8265 20.1328 35.3252C20.3835 34.8125 20.7253 34.1802 21.1582 33.4282L22.6621 30.8647L24.5078 27.8398L17.6206 28.4038C16.0256 31.161 14.2596 33.7586 12.3228 36.1968C11.3771 37.3475 9.98714 37.9229 8.15283 37.9229C6.76286 37.9229 5.53809 37.6266 4.47852 37.0342C3.84049 36.681 3.53288 36.362 3.55566 36.0771C3.56706 35.6784 3.79492 35.2796 4.23926 34.8809C6.06217 33.2858 7.87939 31.3376 9.69092 29.0361L7.07617 29.2412C5.76595 29.2754 4.94564 28.9906 4.61523 28.3867C4.35319 27.8968 4.22217 27.3385 4.22217 26.7119C4.22217 26.279 4.32471 25.9201 4.52979 25.6353C4.73486 25.3504 4.96273 25.1738 5.21338 25.1055C5.46403 25.0371 5.75456 24.9972 6.08496 24.9858L13.1943 24.1143C16.0085 19.5798 17.5978 17.0391 17.9624 16.4922C18.327 15.9339 18.6859 15.4668 19.0391 15.0908C19.9163 14.2021 20.8107 13.7578 21.7222 13.7578C22.3602 13.7578 22.9583 14.0142 23.5166 14.5269C23.7673 14.7547 23.8926 15.0168 23.8926 15.313C23.8926 15.894 23.5736 16.8397 22.9355 18.1499L20.4404 23.2256L28.0967 22.2686C30.2386 19.1696 31.714 17.1017 32.5229 16.0649C34.175 13.9572 35.3257 12.7438 35.9751 12.4248C37.2056 11.8096 38.0999 11.502 38.6582 11.502C39.2165 11.502 39.564 11.6558 39.7007 11.9634C39.8374 12.271 39.8773 12.59 39.8203 12.9204C39.7747 13.2508 39.6095 13.6724 39.3247 14.1851C39.0513 14.6864 38.6924 15.3073 38.248 16.0479C38.248 16.0479 37.1144 17.9391 34.8472 21.7217C35.5991 21.79 36.1175 21.9837 36.4023 22.3027C36.9036 22.8496 37.1543 23.7155 37.1543 24.9004C37.1543 25.7549 37.0461 26.5524 36.8296 27.293C36.7384 27.4411 36.4536 27.5151 35.9751 27.5151ZM56.5593 26.4727C56.5593 27.0879 57.0834 27.3955 58.1316 27.3955C58.9063 27.3955 59.9203 27.0195 61.1736 26.2676L62.5408 25.5156C62.9623 25.2764 63.3269 25.1567 63.6345 25.1567C63.9535 25.1567 64.2042 25.2536 64.3865 25.4473C64.5688 25.641 64.6599 25.9087 64.6599 26.2505C64.6599 26.5923 64.546 26.991 64.3181 27.4468C64.0903 27.8911 63.7769 28.3639 63.3782 28.8652C62.9794 29.3551 62.5123 29.8451 61.9768 30.335C61.4413 30.8135 60.866 31.2464 60.2507 31.6338C58.8836 32.4883 57.6132 32.9155 56.4397 32.9155C55.1978 32.9155 54.2066 32.7048 53.4661 32.2832C53.2382 32.1465 53.016 32.0041 52.7996 31.856C51.5805 33.2459 49.8145 34.522 47.5017 35.6841C45.0408 36.9146 42.8932 37.5298 41.0588 37.5298C39.1334 37.5298 37.6124 36.7721 36.4959 35.2568C35.5958 34.0264 35.1458 32.7788 35.1458 31.5142C35.1458 29.6912 36.1199 27.9538 38.0681 26.3018C39.5037 25.0941 40.888 24.1769 42.221 23.5503C43.5654 22.9237 44.7787 22.4395 45.8611 22.0977C48.1511 21.3799 50.2133 21.021 52.0476 21.021C52.8679 21.021 53.5971 21.1805 54.2351 21.4995C54.8845 21.8071 55.363 22.1204 55.6707 22.4395C56.3998 23.1572 56.7644 24.0744 56.7644 25.1909C56.7644 25.5213 56.7302 25.7777 56.6619 25.96C56.5935 26.1423 56.5593 26.3132 56.5593 26.4727ZM42.5798 29.7026L42.5628 29.7539V29.771C42.5628 30.2609 42.671 30.5799 42.8875 30.728C43.4116 31.047 43.9641 31.1325 44.5452 30.9844C45.1262 30.8249 45.6788 30.6312 46.2029 30.4033C47.5017 29.8451 48.6752 29.1387 49.7234 28.2842C49.5411 27.9196 49.45 27.5436 49.45 27.1562C49.45 26.3359 49.8088 25.5156 50.5266 24.6953C49.6152 24.6953 48.3847 25.1226 46.8352 25.9771C45.1262 26.9227 43.8445 27.8968 42.99 28.8994C42.7166 29.2412 42.5798 29.509 42.5798 29.7026ZM94.6607 32.0269C94.1024 32.3345 93.4815 32.5851 92.7979 32.7788C92.1257 32.9725 91.3281 33.0693 90.4053 33.0693C89.4824 33.0693 88.4969 32.7731 87.4487 32.1807C84.8397 34.5618 82.4357 36.2367 80.2368 37.2051C79.5532 37.5013 79.0405 37.6494 78.6987 37.6494C78.357 37.6494 78.0322 37.6266 77.7246 37.5811C77.417 37.5355 77.1151 37.4785 76.8189 37.4102C76.1011 37.2279 75.6283 37.0627 75.4004 36.9146C75.1725 36.755 74.939 36.5443 74.6997 36.2822C74.4605 36.0202 74.244 35.6898 74.0503 35.291C73.606 34.4137 73.3211 33.2687 73.1958 31.856C70.4387 34.2941 68.7525 35.7183 68.1372 36.1284C67.5334 36.5386 67.0321 36.8348 66.6333 37.0171C65.9042 37.3589 65.118 37.5298 64.2749 37.5298C63.4432 37.5298 62.714 37.3475 62.0874 36.9829C61.4722 36.6183 60.9481 36.1569 60.5152 35.5986C59.6265 34.4365 59.1821 33.1548 59.1821 31.7534C59.1821 29.9875 59.6265 28.2272 60.5152 26.4727C61.8596 23.8066 63.728 22.0179 66.1206 21.1064C66.9182 20.7988 67.596 20.645 68.1543 20.645C68.724 20.645 69.1683 20.6735 69.4873 20.7305C69.8063 20.776 70.0969 20.8672 70.3589 21.0039C70.9741 21.3115 71.2818 21.8014 71.2818 22.4736C71.2818 23.0547 71.0425 23.6756 70.564 24.3364C70.0855 24.9972 69.6753 25.5327 69.3335 25.9429C68.9917 26.353 68.6784 26.7689 68.3936 27.1904C67.7214 28.1702 67.3853 29.019 67.3853 29.7368C67.3853 30.2609 67.7328 30.5229 68.4278 30.5229C69.5101 30.5229 71.2077 29.452 73.5205 27.3101C73.999 25.6922 74.7681 24.3136 75.8277 23.1743C77.0126 21.8983 78.3228 21.2603 79.7583 21.2603C80.966 21.2603 81.7863 21.5394 82.2193 22.0977C82.3674 22.2799 82.4414 22.4565 82.4414 22.6274C82.4414 22.7869 82.3446 23.0205 82.1509 23.3281L80.5103 25.8916C79.2342 27.8854 78.5962 29.3779 78.5962 30.3691C78.5962 31.2464 79.1317 31.6851 80.2027 31.6851C81.0116 31.6851 82.4528 30.6768 84.5264 28.6602C84.4466 28.3525 84.4068 28.0392 84.4068 27.7202C84.4068 27.4012 84.4808 27.048 84.6289 26.6606C84.7884 26.2733 85.0049 25.8631 85.2783 25.4302C85.5518 24.9972 85.8708 24.5643 86.2354 24.1313C86.6 23.6984 86.993 23.3053 87.4146 22.9521C88.3602 22.1774 89.2546 21.79 90.0977 21.79C91.6358 21.79 92.4048 22.5705 92.4048 24.1313C92.4048 25.1226 92.12 26.1593 91.5503 27.2417C91.5503 27.5949 91.744 27.8968 92.1314 28.1475C92.2453 28.2272 92.4048 28.2671 92.6099 28.2671C92.8264 28.2671 93.1055 28.1759 93.4473 27.9937C93.7891 27.8114 94.1309 27.5949 94.4727 27.3442C94.8145 27.0936 95.1335 26.8429 95.4297 26.5923C95.7259 26.3302 96.0279 26.0739 96.3355 25.8232C97.3495 25.0371 98.1071 24.644 98.6084 24.644C98.9502 24.644 99.2293 24.7466 99.4458 24.9517C99.8332 25.3049 100.027 25.5726 100.027 25.7549C100.027 25.9372 99.9813 26.1252 99.8902 26.3188C99.799 26.5125 99.6794 26.7347 99.5313 26.9854C99.3832 27.2246 99.2123 27.4753 99.0186 27.7373C98.2324 28.8083 97.6742 29.5203 97.3438 29.8735C97.0248 30.2153 96.6374 30.5799 96.1817 30.9673C95.7373 31.3547 95.2303 31.7078 94.6607 32.0269Z" fill="#496AC7"/>
</svg>
