<svg width="122" height="45" viewBox="0 0 122 45" fill="none" xmlns="http://www.w3.org/2000/svg">
<path d="M36.709 11.5215C38.6328 11.5215 39.5947 12.3125 39.5947 13.8945C39.5947 14.8711 39.3066 15.8623 38.7305 16.8682C38.1543 17.874 37.5342 18.8311 36.8701 19.7393C36.2158 20.6377 35.5078 21.5312 34.7461 22.4199C33.9941 23.2988 33.1982 24.1582 32.3584 24.998C31.5283 25.8281 30.6885 26.6143 29.8389 27.3564C28.999 28.0986 28.1641 28.7773 27.334 29.3926C26.5137 30.0078 25.7324 30.5352 24.9902 30.9746C23.4277 31.9219 22.2168 32.3955 21.3574 32.3955C19.7656 32.3955 18.3594 31.7656 17.1387 30.5059C16.1035 29.4316 15.6104 27.9277 15.6592 25.9941C14.2139 27.5566 12.4512 28.958 10.3711 30.1982C8.34961 31.4092 6.76758 32.0146 5.625 32.0146C4.6582 32.0146 3.71094 31.4629 2.7832 30.3594C1.88477 29.3047 1.43555 28.3525 1.43555 27.5029C1.43555 26.6436 1.5625 25.7842 1.81641 24.9248C2.08008 24.0654 2.42676 23.1865 2.85645 22.2881C3.2959 21.3896 3.79883 20.4912 4.36523 19.5928C4.93164 18.6846 5.51758 17.8057 6.12305 16.9561C6.72852 16.0967 7.33398 15.2861 7.93945 14.5244L9.59473 12.459C9.81934 12.1953 10.1074 12.0635 10.459 12.0635C10.8203 12.0635 11.1963 12.166 11.5869 12.3711C11.9775 12.5762 12.334 12.8398 12.6562 13.1621C13.4082 13.8945 13.7744 14.5928 13.7549 15.2568C13.7061 16.0771 12.8027 17.6543 11.0449 19.9883L9.75586 21.7461C8.82812 23.0742 8.35449 23.9922 8.33496 24.5C8.31543 24.793 8.39844 25.0469 8.58398 25.2617C8.91602 25.6328 9.19922 25.8184 9.43359 25.8184C10.8594 25.8184 12.832 24.6074 15.3516 22.1855L17.6367 19.9004C19.043 17.2051 20.5176 14.9834 22.0605 13.2354C22.7344 12.4639 23.1934 12.0781 23.4375 12.0781C24.3457 12.0781 25.127 12.4199 25.7812 13.1035C26.3477 13.6797 26.6211 14.1777 26.6016 14.5977C26.582 15.0176 26.4844 15.4131 26.3086 15.7842C26.1328 16.1553 25.9033 16.541 25.6201 16.9414C25.3467 17.332 25.0391 17.7324 24.6973 18.1426L23.6426 19.4023C22.5 20.7695 21.8164 21.7754 21.5918 22.4199C21.3477 23.1328 21.2207 23.6895 21.2109 24.0898C21.2012 24.4902 21.2842 24.8271 21.46 25.1006C21.6357 25.3643 21.8652 25.5791 22.1484 25.7451C22.7148 26.0674 23.4033 26.2285 24.2139 26.2285C24.7021 26.2285 25.4297 25.8086 26.3965 24.9688C27.9883 23.582 29.375 21.8535 30.5566 19.7832C30.957 19.0703 31.25 18.4648 31.4355 17.9668C31.6309 17.4688 31.8164 17.0195 31.9922 16.6191C32.1777 16.2188 32.3926 15.7939 32.6367 15.3447C32.8809 14.8955 33.1543 14.4463 33.457 13.9971C33.7598 13.5381 34.082 13.123 34.4238 12.752C35.2051 11.9316 35.9668 11.5215 36.709 11.5215Z" fill="#F2F6FC"/>
<path d="M42.8773 20H41.9873L43.1473 12.64H44.0473L43.5373 15.89C43.9773 15.26 44.4873 14.97 45.1873 14.97C46.2973 14.97 46.9773 15.83 46.7973 17.01L46.3173 20H45.4273L45.8673 17.22C46.0173 16.3 45.6473 15.79 44.8773 15.79C44.0473 15.79 43.4473 16.4 43.2873 17.42L42.8773 20ZM48.9321 20.12C48.0621 20.12 47.4821 19.6 47.4821 18.81C47.4821 17.82 48.2221 17.2 49.5121 17.09L51.0421 16.97L51.0621 16.84C51.1921 16.11 50.8221 15.71 50.0521 15.71C49.3121 15.71 48.8821 16.03 48.7821 16.66H47.9521C48.1221 15.59 48.9121 14.98 50.1321 14.98C51.4321 14.98 52.1321 15.73 51.9421 16.92L51.4521 20H50.6721L50.7121 19.2C50.3821 19.77 49.6921 20.12 48.9321 20.12ZM49.2521 19.41C50.1321 19.41 50.7721 18.82 50.9121 17.88L50.9521 17.62L49.7021 17.72C48.8221 17.79 48.3921 18.15 48.3921 18.73C48.3921 19.15 48.7121 19.41 49.2521 19.41ZM53.8881 20H52.9981L53.6481 15.87H52.7081L52.8281 15.11H53.7681L54.0081 13.58H54.9081L54.6681 15.11H55.6081L55.4881 15.87H54.5481L53.8881 20ZM35.7 25.93C35.4 25.93 35.18 25.71 35.18 25.42C35.18 25.05 35.51 24.71 35.88 24.71C36.18 24.71 36.39 24.93 36.39 25.22C36.39 25.59 36.06 25.93 35.7 25.93ZM34.29 32L35.07 27.11H35.96L35.19 32H34.29ZM36.2261 30.6H37.1061C37.1161 31.09 37.5061 31.41 38.0961 31.41C38.7061 31.41 39.1261 31.1 39.1261 30.66C39.1261 30.32 38.9761 30.14 38.5561 30L37.7461 29.73C37.0661 29.5 36.6961 29.09 36.6961 28.46C36.6961 27.57 37.4261 26.98 38.5361 26.98C39.5761 26.98 40.2361 27.58 40.2361 28.5H39.3561C39.3461 27.96 39.0461 27.69 38.4761 27.69C37.9161 27.69 37.5661 27.95 37.5661 28.39C37.5661 28.71 37.7561 28.93 38.1761 29.08L38.9761 29.35C39.6861 29.59 40.0061 29.97 40.0061 30.58C40.0061 31.51 39.2361 32.12 38.0461 32.12C36.9661 32.12 36.2261 31.51 36.2261 30.6ZM43.7866 26.8C43.7866 25.51 44.7666 24.64 46.2066 24.64C47.5566 24.64 48.5066 25.46 48.5866 26.66H47.6366C47.5566 25.93 47.0166 25.5 46.1666 25.5C45.2866 25.5 44.7266 25.96 44.7266 26.7C44.7266 27.25 45.0166 27.59 45.6766 27.81L46.7466 28.17C47.7366 28.5 48.1966 29.07 48.1966 29.96C48.1966 31.25 47.1766 32.13 45.6666 32.13C44.1966 32.13 43.3166 31.41 43.2066 30.11H44.1666C44.2366 30.85 44.7866 31.27 45.6966 31.27C46.6466 31.27 47.2666 30.78 47.2666 30.03C47.2666 29.5 47.0266 29.21 46.4066 29L45.3466 28.65C44.3066 28.32 43.7866 27.7 43.7866 26.8ZM48.4905 34.19L49.6105 27.11H50.4305L50.3605 27.97C50.7805 27.32 51.3705 26.98 52.1405 26.98C53.2905 26.98 54.1005 27.87 54.1005 29.15C54.1005 30.87 52.9905 32.12 51.5205 32.12C50.7305 32.12 50.0905 31.73 49.8605 31.1L49.3805 34.19H48.4905ZM50.0905 29.93C50.0905 30.8 50.5705 31.32 51.4005 31.32C52.4105 31.32 53.2005 30.4 53.2005 29.2C53.2005 28.34 52.7005 27.78 51.9105 27.78C50.8905 27.78 50.0905 28.72 50.0905 29.93ZM56.7891 32.12C55.4891 32.12 54.6391 31.26 54.6391 29.94C54.6391 28.27 55.7991 26.98 57.3091 26.98C58.6991 26.98 59.5091 27.98 59.2891 29.38L59.2391 29.72L55.5191 29.73C55.5191 29.78 55.5191 29.83 55.5191 29.89C55.5191 30.8 56.0091 31.36 56.8191 31.36C57.4591 31.36 57.9991 31.04 58.2191 30.49H59.1191C58.7891 31.49 57.8591 32.12 56.7891 32.12ZM57.2691 27.74C56.4991 27.74 55.8691 28.3 55.6291 29.12H58.4291C58.5591 28.29 58.0791 27.74 57.2691 27.74ZM61.9819 32.12C60.6819 32.12 59.8319 31.26 59.8319 29.94C59.8319 28.27 60.9919 26.98 62.5019 26.98C63.8919 26.98 64.7019 27.98 64.4819 29.38L64.4319 29.72L60.7119 29.73C60.7119 29.78 60.7119 29.83 60.7119 29.89C60.7119 30.8 61.2019 31.36 62.0119 31.36C62.6519 31.36 63.1919 31.04 63.4119 30.49H64.3119C63.9819 31.49 63.0519 32.12 61.9819 32.12ZM62.4619 27.74C61.6919 27.74 61.0619 28.3 60.8219 29.12H63.6219C63.7519 28.29 63.2719 27.74 62.4619 27.74ZM66.9946 32.12C65.8546 32.12 65.0346 31.23 65.0346 29.95C65.0346 28.23 66.1446 26.98 67.6246 26.98C68.4146 26.98 69.0446 27.37 69.2746 28L69.7946 24.64H70.6946L69.5346 32H68.7146L68.7746 31.13C68.3546 31.78 67.7646 32.12 66.9946 32.12ZM67.2346 31.32C68.2446 31.32 69.0446 30.38 69.0446 29.17C69.0446 28.3 68.5646 27.78 67.7346 27.78C66.7246 27.78 65.9446 28.7 65.9446 29.9C65.9446 30.76 66.4446 31.32 67.2346 31.32ZM77.7191 28.92H74.9391L74.4491 32H73.5091L74.6491 24.77H78.9091L78.7691 25.64H75.4491L75.0691 28.06H77.8591L77.7191 28.92ZM81.8755 27.07L81.7455 27.9H81.3355C80.4855 27.9 79.8355 28.44 79.6955 29.38L79.2755 32H78.3755L79.1555 27.11H79.9755L79.9155 27.88C80.2055 27.36 80.7355 27.01 81.3755 27.01C81.5455 27.01 81.7155 27.03 81.8755 27.07ZM83.2693 25.93C82.9693 25.93 82.7493 25.71 82.7493 25.42C82.7493 25.05 83.0793 24.71 83.4493 24.71C83.7493 24.71 83.9593 24.93 83.9593 25.22C83.9593 25.59 83.6293 25.93 83.2693 25.93ZM81.8593 32L82.6393 27.11H83.5293L82.7593 32H81.8593ZM86.1754 32.12C84.8754 32.12 84.0254 31.26 84.0254 29.94C84.0254 28.27 85.1854 26.98 86.6954 26.98C88.0854 26.98 88.8954 27.98 88.6754 29.38L88.6254 29.72L84.9054 29.73C84.9054 29.78 84.9054 29.83 84.9054 29.89C84.9054 30.8 85.3954 31.36 86.2054 31.36C86.8454 31.36 87.3854 31.04 87.6054 30.49H88.5054C88.1754 31.49 87.2454 32.12 86.1754 32.12ZM86.6554 27.74C85.8854 27.74 85.2554 28.3 85.0154 29.12H87.8154C87.9454 28.29 87.4654 27.74 86.6554 27.74ZM90.0881 32H89.1881L89.9681 27.11H90.7681L90.7481 27.89C91.1781 27.26 91.6881 26.97 92.3981 26.97C93.5081 26.97 94.1881 27.83 93.9981 29.01L93.5281 32H92.6281L93.0681 29.22C93.2181 28.3 92.8581 27.79 92.0881 27.79C91.2481 27.79 90.6581 28.41 90.4981 29.42L90.0881 32ZM96.7227 32.12C95.5827 32.12 94.7627 31.23 94.7627 29.95C94.7627 28.23 95.8727 26.98 97.3527 26.98C98.1427 26.98 98.7727 27.37 99.0027 28L99.5227 24.64H100.423L99.2627 32H98.4427L98.5027 31.13C98.0827 31.78 97.4927 32.12 96.7227 32.12ZM96.9627 31.32C97.9727 31.32 98.7727 30.38 98.7727 29.17C98.7727 28.3 98.2927 27.78 97.4627 27.78C96.4527 27.78 95.6727 28.7 95.6727 29.9C95.6727 30.76 96.1727 31.32 96.9627 31.32ZM101.911 25.93C101.611 25.93 101.391 25.71 101.391 25.42C101.391 25.05 101.721 24.71 102.091 24.71C102.391 24.71 102.601 24.93 102.601 25.22C102.601 25.59 102.271 25.93 101.911 25.93ZM100.501 32L101.281 27.11H102.171L101.401 32H100.501ZM103.537 32H102.637L103.417 27.11H104.217L104.197 27.89C104.627 27.26 105.137 26.97 105.847 26.97C106.957 26.97 107.637 27.83 107.447 29.01L106.977 32H106.077L106.517 29.22C106.667 28.3 106.307 27.79 105.537 27.79C104.697 27.79 104.107 28.41 103.947 29.42L103.537 32ZM108.222 29.83C108.222 28.24 109.382 26.98 110.852 26.98C111.592 26.98 112.182 27.35 112.402 27.93L112.612 27.11H113.442L112.702 31.81C112.442 33.46 111.562 34.31 110.112 34.31C108.792 34.31 107.892 33.52 107.862 32.33H108.762C108.802 33.05 109.322 33.49 110.132 33.49C111.032 33.49 111.622 32.95 111.782 31.94L111.942 30.94C111.552 31.53 110.922 31.87 110.202 31.87C109.032 31.87 108.222 31.04 108.222 29.83ZM109.142 29.77C109.142 30.57 109.632 31.09 110.372 31.09C111.392 31.09 112.172 30.23 112.172 29.07C112.172 28.28 111.692 27.78 110.912 27.78C109.912 27.78 109.142 28.66 109.142 29.77ZM118.857 30.26H118.027L118.067 30.02C118.177 29.34 118.567 28.8 119.407 28.23C120.267 27.63 120.577 27.2 120.577 26.59C120.577 25.92 120.107 25.5 119.387 25.5C118.547 25.5 117.987 26.04 117.877 26.96H116.927C117.137 25.52 118.117 24.63 119.467 24.63C120.687 24.63 121.547 25.42 121.547 26.56C121.547 27.41 121.047 28.1 120.037 28.76C119.227 29.27 118.967 29.58 118.897 30.02L118.857 30.26ZM118.177 32.12C117.847 32.12 117.597 31.86 117.597 31.54C117.597 31.12 117.987 30.73 118.397 30.73C118.737 30.73 118.987 30.99 118.987 31.32C118.987 31.73 118.597 32.12 118.177 32.12Z" fill="#F2F6FC"/>
</svg>
