<svg width="143" height="18" viewBox="0 0 143 18" fill="none" xmlns="http://www.w3.org/2000/svg">
<path d="M4 14.7539C5.13317 14.7539 7.62367 14.5485 8.97632 13.8231C10.2969 13.115 11.4653 12.3693 13.7456 12.4175C15.45 12.4536 17.2681 13.5087 19.248 13.1989C21.3197 12.8748 23.6064 13.0915 24.8532 14.0239C25.4101 14.4404 26.2027 14.6481 26.9795 14.9594C28.3797 15.5206 30.144 14.0317 31.4421 13.4075C32.281 13.0042 32.9489 12.5748 33.6213 12.7289C35.8216 13.2331 37.6154 14.7539 38.965 14.961C40.7379 15.2329 43.0011 13.4153 44.8285 12.5763C46.249 11.9242 49.0157 11.9521 51.0034 12.3133C51.7102 12.4417 52.2502 12.9888 52.974 13.0931C54.7697 13.3518 55.9828 12.058 57.2296 11.384C58.5471 10.6718 60.3412 11.4291 61.8977 12.209C63.7801 13.152 66.2561 12.7802 67.7084 13.1445C71.1396 14.005 74.6646 11.8494 75.3371 11.7965C77.4396 11.631 79.3312 13.5087 81.4512 13.7671C87.3868 14.4905 89.4986 12.8861 90.954 13.1445C93.0025 13.5081 94.8968 12.1638 96.0922 11.8992C96.8067 11.7411 97.0791 13.0915 97.7001 13.4542C98.2815 13.7937 99.0497 13.82 99.8264 13.7173C101.619 13.4801 103.713 12.2634 105.944 12.5218C109.935 12.9842 111.396 13.7142 113.415 14.3368C117.446 15.58 119.49 12.581 120.634 12.3677C120.864 12.325 120.947 11.9584 120.949 12.0051C120.965 12.4735 120.742 14.6325 120.999 17.0218C121.182 18.7302 124.054 15.3828 125.046 14.136C125.875 13.0935 125.723 11.8525 125.877 11.2813C126.161 10.2297 129.44 12.3568 131.58 13.8683C131.946 14.0286 132.254 13.9259 132.567 13.7702C132.88 13.6145 133.188 13.4091 134.128 12.8861" stroke="#CADAF3" stroke-linecap="round"/>
<path d="M4.66 7.93H1.82V11H0.84V3.77H5.2V4.67H1.82V7.04H4.66V7.93ZM6.57687 4.95C6.23687 4.95 5.95687 4.67 5.95687 4.33C5.95687 3.98 6.23687 3.71 6.57687 3.71C6.91687 3.71 7.19688 3.98 7.19688 4.33C7.19688 4.67 6.91687 4.95 6.57687 4.95ZM6.11687 11V6.11H7.05687V11H6.11687ZM11.1116 6.07V6.93H10.6916C9.80156 6.93 9.25156 7.47 9.25156 8.41V11H8.31156V6.12H9.19156L9.25156 6.86C9.45156 6.35 9.94156 6.01 10.6116 6.01C10.7816 6.01 10.9216 6.03 11.1116 6.07ZM11.4832 9.58H12.3832C12.3832 10.08 12.7632 10.38 13.3832 10.38C14.0432 10.38 14.4232 10.11 14.4232 9.66C14.4232 9.33 14.2632 9.13 13.7532 9L12.8932 8.8C12.0232 8.59 11.6132 8.16 11.6132 7.44C11.6132 6.54 12.3732 5.97 13.4532 5.97C14.5232 5.97 15.2232 6.57 15.2432 7.5H14.3432C14.3232 7.01 13.9932 6.7 13.4232 6.7C12.8332 6.7 12.5032 6.96 12.5032 7.41C12.5032 7.74 12.7432 7.96 13.2232 8.08L14.0832 8.29C14.9132 8.49 15.3232 8.87 15.3232 9.6C15.3232 10.53 14.5232 11.12 13.3632 11.12C12.2132 11.12 11.4832 10.51 11.4832 9.58ZM17.6356 11H16.6956V6.9H15.7356V6.11H16.6956V4.58H17.6356V6.11H18.5956V6.9H17.6356V11ZM23.3336 11H22.3936V6.9H21.4336V6.11H22.3936V4.58H23.3336V6.11H24.2936V6.9H23.3336V11ZM25.4872 4.95C25.1472 4.95 24.8672 4.67 24.8672 4.33C24.8672 3.98 25.1472 3.71 25.4872 3.71C25.8272 3.71 26.1072 3.98 26.1072 4.33C26.1072 4.67 25.8272 4.95 25.4872 4.95ZM25.0272 11V6.11H25.9672V11H25.0272ZM28.1619 11H27.2219V6.11H28.0619L28.1519 6.75C28.4019 6.29 28.9219 5.97 29.6119 5.97C30.3719 5.97 30.9119 6.35 31.1619 6.96C31.3919 6.35 31.9819 5.97 32.7419 5.97C33.8619 5.97 34.5419 6.67 34.5419 7.8V11H33.6219V8.03C33.6219 7.26 33.1919 6.82 32.5319 6.82C31.8219 6.82 31.3519 7.32 31.3519 8.1V11H30.4219V8.02C30.4219 7.25 30.0019 6.83 29.3419 6.83C28.6319 6.83 28.1619 7.32 28.1619 8.1V11ZM37.8449 11.12C36.4049 11.12 35.4149 10.08 35.4149 8.56C35.4149 7.03 36.3849 5.97 37.8049 5.97C39.1949 5.97 40.1049 6.93 40.1049 8.38V8.73L36.3249 8.74C36.3949 9.77 36.9349 10.34 37.8649 10.34C38.5949 10.34 39.0749 10.04 39.2349 9.48H40.1149C39.8749 10.53 39.0549 11.12 37.8449 11.12ZM37.8049 6.76C36.9849 6.76 36.4649 7.25 36.3449 8.11H39.1649C39.1649 7.3 38.6349 6.76 37.8049 6.76ZM45.0492 11H44.1092V6.9H43.1492V6.11H44.1092V4.58H45.0492V6.11H46.0092V6.9H45.0492V11ZM46.374 8.55C46.374 7.04 47.454 5.98 48.924 5.98C50.384 5.98 51.464 7.04 51.464 8.55C51.464 10.06 50.384 11.12 48.924 11.12C47.454 11.12 46.374 10.06 46.374 8.55ZM47.324 8.55C47.324 9.57 47.974 10.28 48.924 10.28C49.864 10.28 50.524 9.57 50.524 8.55C50.524 7.53 49.864 6.82 48.924 6.82C47.974 6.82 47.324 7.53 47.324 8.55ZM54.7589 5.72C54.7589 4.48 55.7589 3.64 57.2489 3.64C58.6289 3.64 59.5189 4.41 59.5989 5.66H58.6089C58.5589 4.94 58.0489 4.52 57.2389 4.52C56.3289 4.52 55.7389 4.98 55.7389 5.69C55.7389 6.27 56.0689 6.62 56.7489 6.78L57.9389 7.06C59.1189 7.33 59.7189 7.97 59.7189 8.99C59.7189 10.29 58.7089 11.12 57.1689 11.12C55.6989 11.12 54.7189 10.35 54.6589 9.11H55.6589C55.6789 9.8 56.2589 10.24 57.1689 10.24C58.1289 10.24 58.7389 9.79 58.7389 9.07C58.7389 8.5 58.4289 8.14 57.7389 7.98L56.5489 7.71C55.3689 7.44 54.7589 6.76 54.7589 5.72ZM60.6804 13.19V6.11H61.5304L61.6004 6.99C61.9304 6.32 62.5904 5.97 63.3704 5.97C64.7704 5.97 65.6404 7.02 65.6404 8.52C65.6404 10.01 64.8204 11.13 63.3704 11.13C62.5904 11.13 61.9404 10.8 61.6204 10.2V13.19H60.6804ZM61.6304 8.56C61.6304 9.56 62.2104 10.28 63.1704 10.28C64.1304 10.28 64.7004 9.56 64.7004 8.56C64.7004 7.55 64.1304 6.83 63.1704 6.83C62.2104 6.83 61.6304 7.54 61.6304 8.56ZM68.6765 11.12C67.2365 11.12 66.2465 10.08 66.2465 8.56C66.2465 7.03 67.2165 5.97 68.6365 5.97C70.0265 5.97 70.9365 6.93 70.9365 8.38V8.73L67.1565 8.74C67.2265 9.77 67.7665 10.34 68.6965 10.34C69.4265 10.34 69.9065 10.04 70.0665 9.48H70.9465C70.7065 10.53 69.8865 11.12 68.6765 11.12ZM68.6365 6.76C67.8165 6.76 67.2965 7.25 67.1765 8.11H69.9965C69.9965 7.3 69.4665 6.76 68.6365 6.76ZM73.9864 11.12C72.5464 11.12 71.5564 10.08 71.5564 8.56C71.5564 7.03 72.5264 5.97 73.9464 5.97C75.3364 5.97 76.2464 6.93 76.2464 8.38V8.73L72.4664 8.74C72.5364 9.77 73.0764 10.34 74.0064 10.34C74.7364 10.34 75.2164 10.04 75.3764 9.48H76.2564C76.0164 10.53 75.1964 11.12 73.9864 11.12ZM73.9464 6.76C73.1264 6.76 72.6064 7.25 72.4864 8.11H75.3064C75.3064 7.3 74.7764 6.76 73.9464 6.76ZM79.1463 11.12C77.7263 11.12 76.8663 10.06 76.8663 8.57C76.8663 7.07 77.7363 5.97 79.1863 5.97C79.9363 5.97 80.5663 6.3 80.8963 6.9V3.64H81.8263V11H80.9863L80.9063 10.11C80.5863 10.78 79.9263 11.12 79.1463 11.12ZM79.3363 10.27C80.2963 10.27 80.8863 9.56 80.8863 8.54C80.8863 7.54 80.2963 6.82 79.3363 6.82C78.3763 6.82 77.8163 7.54 77.8163 8.54C77.8163 9.55 78.3763 10.27 79.3363 10.27ZM89.6768 7.93H86.8368V11H85.8568V3.77H90.2168V4.67H86.8368V7.04H89.6768V7.93ZM93.6309 6.07V6.93H93.2109C92.3209 6.93 91.7709 7.47 91.7709 8.41V11H90.8309V6.12H91.7109L91.7709 6.86C91.9709 6.35 92.4609 6.01 93.1309 6.01C93.3009 6.01 93.4409 6.03 93.6309 6.07ZM94.8626 4.95C94.5226 4.95 94.2426 4.67 94.2426 4.33C94.2426 3.98 94.5226 3.71 94.8626 3.71C95.2026 3.71 95.4826 3.98 95.4826 4.33C95.4826 4.67 95.2026 4.95 94.8626 4.95ZM94.4026 11V6.11H95.3426V11H94.4026ZM98.7073 11.12C97.2673 11.12 96.2773 10.08 96.2773 8.56C96.2773 7.03 97.2473 5.97 98.6673 5.97C100.057 5.97 100.967 6.93 100.967 8.38V8.73L97.1873 8.74C97.2573 9.77 97.7973 10.34 98.7273 10.34C99.4573 10.34 99.9373 10.04 100.097 9.48H100.977C100.737 10.53 99.9173 11.12 98.7073 11.12ZM98.6673 6.76C97.8473 6.76 97.3273 7.25 97.2073 8.11H100.027C100.027 7.3 99.4973 6.76 98.6673 6.76ZM102.847 11H101.907V6.11H102.757L102.857 6.86C103.167 6.3 103.787 5.97 104.477 5.97C105.767 5.97 106.357 6.76 106.357 8.01V11H105.417V8.22C105.417 7.23 104.957 6.83 104.237 6.83C103.357 6.83 102.847 7.46 102.847 8.41V11ZM109.509 11.12C108.089 11.12 107.229 10.06 107.229 8.57C107.229 7.07 108.099 5.97 109.549 5.97C110.299 5.97 110.929 6.3 111.259 6.9V3.64H112.189V11H111.349L111.269 10.11C110.949 10.78 110.289 11.12 109.509 11.12ZM109.699 10.27C110.659 10.27 111.249 9.56 111.249 8.54C111.249 7.54 110.659 6.82 109.699 6.82C108.739 6.82 108.179 7.54 108.179 8.54C108.179 9.55 108.739 10.27 109.699 10.27ZM113.895 4.95C113.555 4.95 113.275 4.67 113.275 4.33C113.275 3.98 113.555 3.71 113.895 3.71C114.235 3.71 114.515 3.98 114.515 4.33C114.515 4.67 114.235 4.95 113.895 4.95ZM113.435 11V6.11H114.375V11H113.435ZM116.57 11H115.63V6.11H116.48L116.58 6.86C116.89 6.3 117.51 5.97 118.2 5.97C119.49 5.97 120.08 6.76 120.08 8.01V11H119.14V8.22C119.14 7.23 118.68 6.83 117.96 6.83C117.08 6.83 116.57 7.46 116.57 8.41V11ZM120.962 8.43C120.962 7.05 121.852 5.97 123.272 5.97C124.062 5.97 124.672 6.33 124.982 6.94L125.052 6.11H125.892V10.8C125.892 12.34 124.942 13.32 123.442 13.32C122.112 13.32 121.202 12.57 121.022 11.33H121.962C122.082 12.05 122.622 12.47 123.442 12.47C124.362 12.47 124.962 11.87 124.962 10.94V9.96C124.642 10.53 124.002 10.87 123.232 10.87C121.842 10.87 120.962 9.8 120.962 8.43ZM121.902 8.41C121.902 9.33 122.472 10.05 123.392 10.05C124.342 10.05 124.922 9.37 124.922 8.41C124.922 7.47 124.362 6.79 123.402 6.79C122.462 6.79 121.902 7.51 121.902 8.41ZM130.563 7.37C130.173 7.37 129.843 7.05 129.843 6.68C129.843 6.29 130.173 5.97 130.563 5.97C130.943 5.97 131.273 6.29 131.273 6.68C131.273 7.05 130.943 7.37 130.563 7.37ZM130.563 11.12C130.173 11.12 129.843 10.8 129.843 10.42C129.843 10.03 130.173 9.71 130.563 9.71C130.943 9.71 131.273 10.03 131.273 10.42C131.273 10.8 130.943 11.12 130.563 11.12ZM132.722 12.73H131.932C132.782 11.56 133.282 9.8 133.282 8.03C133.282 6.16 132.732 4.44 131.932 3.34H132.722C133.692 4.55 134.242 6.33 134.242 8.03C134.242 9.84 133.632 11.58 132.722 12.73ZM140.089 9.25H139.219V9C139.219 8.15 139.769 7.69 140.309 7.27C140.799 6.89 141.249 6.52 141.249 5.86C141.249 5.09 140.739 4.52 139.919 4.52C139.129 4.52 138.539 5.14 138.539 5.96H137.569C137.569 4.63 138.589 3.64 139.939 3.64C141.359 3.64 142.239 4.54 142.239 5.81C142.239 6.86 141.559 7.37 140.979 7.79C140.449 8.17 140.089 8.49 140.089 9V9.25ZM139.699 11.14C139.299 11.14 138.979 10.82 138.979 10.43C138.979 10.04 139.299 9.72 139.699 9.72C140.079 9.72 140.409 10.05 140.409 10.43C140.409 10.81 140.079 11.14 139.699 11.14Z" fill="#384995"/>
</svg>
